<svg viewBox="0 0 547.67 160.69" xmlns="http://www.w3.org/2000/svg"><g transform="translate(-69.2 -91.36)"><path d="m120.82 217.63a39.17 39.17 0 0 1 -15.69-3.16 40.85 40.85 0 0 1 -21.55-21.55 39.17 39.17 0 0 1 -3.16-15.69v-26.83h-11.22v-22.94h11.22v-36.1h22.94v36.1h34.92v22.94h-34.92v26.83a17.11 17.11 0 0 0 1.35 6.79 17.36 17.36 0 0 0 3.71 5.52 17.71 17.71 0 0 0 5.58 3.76 17.06 17.06 0 0 0 6.83 1.39h17.46v22.94z"/><path d="m238.49 171.66a48.77 48.77 0 0 1 -3.62 18.85 47.16 47.16 0 0 1 -9.87 15.1 46.23 46.23 0 0 1 -14.64 10 45.8 45.8 0 0 1 -35.93 0 46.23 46.23 0 0 1 -24.59-25.14 48.59 48.59 0 0 1 -3.63-18.85 49.36 49.36 0 0 1 3.63-19.06 45.89 45.89 0 0 1 24.59-25.14 44.64 44.64 0 0 1 17.92-3.63 47.29 47.29 0 0 1 18 3.42 43.6 43.6 0 0 1 14.65 9.79 46 46 0 0 1 9.87 15.1 51.23 51.23 0 0 1 3.62 19.56zm-23.19 0a26.81 26.81 0 0 0 -1.82-10.08 24 24 0 0 0 -4.93-7.76 21.56 21.56 0 0 0 -7.3-5 23.76 23.76 0 0 0 -17.8 0 21.07 21.07 0 0 0 -7.25 5 23.64 23.64 0 0 0 -4.85 7.76 27.41 27.41 0 0 0 -1.77 10.08 26.1 26.1 0 0 0 1.77 9.7 24.17 24.17 0 0 0 4.85 7.76 22.81 22.81 0 0 0 7.25 5.19 21.36 21.36 0 0 0 8.9 1.9 22.55 22.55 0 0 0 8.9-1.77 22.14 22.14 0 0 0 7.3-5 23.37 23.37 0 0 0 4.93-7.76 26.89 26.89 0 0 0 1.82-10.02z"/><path d="m274.43 252.05h-23.2v-124.76h5.57l9.2 10.88a62.09 62.09 0 0 1 6.83-5.56 52.38 52.38 0 0 1 7.72-4.52 46 46 0 0 1 8.31-3 35.09 35.09 0 0 1 8.69-1.1 47 47 0 0 1 17.92 3.42 44.33 44.33 0 0 1 14.68 9.66 45.19 45.19 0 0 1 9.91 15 50.85 50.85 0 0 1 3.63 19.53 52.61 52.61 0 0 1 -3.63 20 44.41 44.41 0 0 1 -9.91 15.1 42.83 42.83 0 0 1 -14.68 9.49 48.51 48.51 0 0 1 -17.92 3.29 27.25 27.25 0 0 1 -6-.67 41.89 41.89 0 0 1 -5.91-1.81q-2.91-1.14-5.73-2.58c-1.89-.95-3.7-1.94-5.44-2.95zm46.14-80.39a27.63 27.63 0 0 0 -1.82-10.29 22.88 22.88 0 0 0 -4.93-7.72 21.37 21.37 0 0 0 -7.34-4.85 23.93 23.93 0 0 0 -8.94-1.69 23.61 23.61 0 0 0 -8.9 1.69 21.5 21.5 0 0 0 -7.3 4.85 22.88 22.88 0 0 0 -4.93 7.72 27.63 27.63 0 0 0 -1.82 10.29 26.89 26.89 0 0 0 1.82 10 23.37 23.37 0 0 0 4.93 7.76 22.14 22.14 0 0 0 7.3 5 22.55 22.55 0 0 0 8.9 1.77 22.85 22.85 0 0 0 8.94-1.77 22 22 0 0 0 7.34-5 23.37 23.37 0 0 0 4.93-7.76 26.89 26.89 0 0 0 1.82-10z"/><path d="m422.8 207.09a60.37 60.37 0 0 1 -5.94 4.76 44.22 44.22 0 0 1 -6.63 3.89 41.64 41.64 0 0 1 -7.12 2.61 29 29 0 0 1 -7.47 1 41.59 41.59 0 0 1 -15.64-2.98 38.19 38.19 0 0 1 -21.55-21.64 46.16 46.16 0 0 1 -3.16-17.5v-49.94h22.94v49.94a22.34 22.34 0 0 0 1.39 8.14 17.81 17.81 0 0 0 3.76 6 15.59 15.59 0 0 0 5.52 3.71 18.18 18.18 0 0 0 6.79 1.27 14.32 14.32 0 0 0 6.71-1.65 18.76 18.76 0 0 0 5.52-4.34 20.72 20.72 0 0 0 3.71-6.12 19 19 0 0 0 1.35-7v-49.95h23v90.34h-5.57z"/><path d="m534 189v-32h10a46.58 46.58 0 0 0 -1.68-4.87 45.19 45.19 0 0 0 -9.91-15 44.33 44.33 0 0 0 -14.68-9.66 47 47 0 0 0 -17.91-3.47 35.09 35.09 0 0 0 -8.69 1.1 46 46 0 0 0 -8.31 3 52.38 52.38 0 0 0 -7.72 4.52 62.09 62.09 0 0 0 -6.83 5.56l-9.2-10.88h-5.56v124.75h23.19v-40.49c1.75 1 3.56 2 5.44 2.95s3.8 1.82 5.74 2.58a41.89 41.89 0 0 0 5.91 1.81 27.25 27.25 0 0 0 6 .67 48.51 48.51 0 0 0 17.92-3.29 42.83 42.83 0 0 0 14.68-9.49 44.41 44.41 0 0 0 9.91-15.1c.36-.88.68-1.78 1-2.69zm-13-7.3a23.37 23.37 0 0 1 -4.93 7.76 22 22 0 0 1 -7.34 5 22.85 22.85 0 0 1 -8.94 1.77 22.55 22.55 0 0 1 -8.9-1.77 22 22 0 0 1 -7.3-5 23.21 23.21 0 0 1 -4.93-7.76 26.89 26.89 0 0 1 -1.82-10 27.63 27.63 0 0 1 1.82-10.29 22.73 22.73 0 0 1 4.93-7.72 21.4 21.4 0 0 1 7.3-4.85 23.61 23.61 0 0 1 8.9-1.69 23.93 23.93 0 0 1 8.94 1.69 21.37 21.37 0 0 1 7.34 4.85 22.88 22.88 0 0 1 4.93 7.72 27.63 27.63 0 0 1 1.81 10.29 26.89 26.89 0 0 1 -1.81 10z"/><path d="m590.14 211.36h-25.78v-25.78h-26.82v-25.68h26.82v-27.9h25.78v27.9h26.73v25.68h-26.73z" fill="#ff4200"/></g></svg>